<svg id="Layer_1" data-name="Layer 1" xmlns="http://www.w3.org/2000/svg" viewBox="0 0 1920 1080"><defs><style>.cls-1{fill:#fae3d9;}.cls-2{font-size:224px;letter-spacing:0em;}.cls-2,.cls-3,.cls-4{fill:#d4af37;}.cls-2,.cls-3{font-family:BodoniSvtyTwoSCITCTT-Book, "Bodoni 72 Smallcaps";}.cls-3{font-size:39px;letter-spacing:0.01em;}</style></defs><title>Artboard 1</title><rect class="cls-1" x="-20" y="-16" width="1949" height="1110"/><rect class="cls-1" x="3" y="2" width="512" height="512"/><text class="cls-2" transform="translate(187 281.92)">C</text><text/><text class="cls-3" transform="translate(137.18 358.3)">Camille Ulrikke</text><path class="cls-4" d="M286.91,366.71a6.31,6.31,0,0,0-.29-.66,2.16,2.16,0,0,0-.34-.47,2,2,0,0,0-1.06-.52,20.8,20.8,0,0,0-2.34-.3,3.59,3.59,0,0,1-2.2-.73c-.13-.1-.19-.25-.31-.36a.36.36,0,0,1-.1-.35.62.62,0,0,0,0-.33.19.19,0,0,1,.11-.28,4.84,4.84,0,0,1,.54-.17s.07,0,.07,0,.14.11.2.11c.5,0,1,.08,1.5.07a7,7,0,0,0,1.29-.14,2.74,2.74,0,0,0,.68-.35.68.68,0,0,0,.19-.88,3,3,0,0,0-1.57-1.28c-.38-.17-.79-.29-1-.68,0,0,0,0-.06,0-.22-.06-.27-.21-.32-.38a.88.88,0,0,0-.13-.3,1.1,1.1,0,0,1-.28-.57,1.6,1.6,0,0,0,0-.23l-.42,0c.22.58.44,1.16.69,1.74a2.05,2.05,0,0,0,1.25,1,3.39,3.39,0,0,1,1,.54l.12.13c.31.39.18.71-.35.8a9.74,9.74,0,0,1-1.95.1,5.88,5.88,0,0,0-1.19,0,1.06,1.06,0,0,0-.74,1.73,2.56,2.56,0,0,0,1,.92,3.08,3.08,0,0,0,1.37.37c.44,0,.89.08,1.34.14.23,0,.45.08.68.12l1,.17a1.12,1.12,0,0,1,.91.93.38.38,0,0,1-.2.48,3.28,3.28,0,0,1-.75.13c-.49,0-1,0-1.48-.09s-1.15-.18-1.73-.26a2.88,2.88,0,0,0-.65-.07,10.4,10.4,0,0,0-1.11.1,2.61,2.61,0,0,0-1.49.63,1.12,1.12,0,0,0,.11,1.73,3,3,0,0,0,1.26.53c.21,0,.44,0,.66.06s.63.1.95.12c.58,0,1.17,0,1.75.06a5.52,5.52,0,0,1,.91.11.42.42,0,0,1,.33.38.34.34,0,0,1-.19.4,2.55,2.55,0,0,1-1.07.25c-.58,0-1.15,0-1.72.06a.84.84,0,0,0-.78.69,1.21,1.21,0,0,0,.36,1.06,5,5,0,0,0,.55.46c.09.07.14.14.06.23a3.74,3.74,0,0,0-.27.31.78.78,0,0,0-.16.33c-.06.53.23.87.84,1a2,2,0,0,1,.32.17c-.36.11-.37.12-.19.35l.84-.32.09.3h.06c0-.11.18-.22-.08-.32a1,1,0,0,0,0-1.43,4.81,4.81,0,0,1,.05.75.77.77,0,0,1-.54.58c0-.07-.06-.13-.1-.19l-.14-.12s-.12,0-.13-.07-.07-.31-.1-.47h.05l.09.42a1.51,1.51,0,0,1,.06-.78.82.82,0,0,1,.14.54,1.3,1.3,0,0,0,.08.37l.28-.09.05,0a.34.34,0,0,0,.22-.38,1.25,1.25,0,0,0-.08-.32s-.09-.1-.13-.15-.11-.15-.09-.17,0-.14-.11-.17-.1-.09-.14-.14,0-.08-.05-.1l-.91-.73a1.08,1.08,0,0,0-.19-.08l-.16-.08,0,0,.11,0-.21-.64h0l-.09.42c-.21-.32-.09-.54.39-.71l.1.12.11-.19a5.44,5.44,0,0,0,.8.09,5,5,0,0,0,.76-.06s0,0,0-.06l-.27,0v-.05a5.63,5.63,0,0,0,.83,0,5.88,5.88,0,0,0,.78-.25l-.17.18a.47.47,0,0,0,.47-.18.6.6,0,0,0,.11-.86l0,.46a1.28,1.28,0,0,1-.09-.6c.06-.26-.14-.38-.32-.49a2.07,2.07,0,0,0-1.1-.28c-.36,0-.72,0-1.08,0s-1-.07-1.49-.1a4.75,4.75,0,0,1-1.4-.21,1.43,1.43,0,0,1-.85-.68l0,0-.06,0,.36-.69-.32.16a.22.22,0,0,1,.08-.13,2.63,2.63,0,0,1,1.2-.54c.12,0,.24-.06.28.06s.22-.11.29-.08a1.49,1.49,0,0,0,.55.05h.12v-.06l-.13,0h-.22a2,2,0,0,1,.92,0l-.14.15c.26.06.51.13.76.17a9.06,9.06,0,0,0,1,.13c.61,0,1.23.08,1.85.1a1.16,1.16,0,0,0,.73-.24.37.37,0,0,1,.18-.08A.59.59,0,0,0,286.91,366.71Z"/><path class="cls-4" d="M156.76,366.48a3.87,3.87,0,0,0-.29-.62,2,2,0,0,0-.34-.44,2,2,0,0,0-1-.48,18.82,18.82,0,0,0-2.35-.28,3.91,3.91,0,0,1-2.2-.69c-.12-.09-.19-.23-.3-.33a.3.3,0,0,1-.1-.33.47.47,0,0,0,0-.31.18.18,0,0,1,.11-.26,4.81,4.81,0,0,1,.54-.16h.08c0,.14.14.1.19.11.5,0,1,.07,1.51.06a7.71,7.71,0,0,0,1.28-.13,3.12,3.12,0,0,0,.69-.33.62.62,0,0,0,.19-.82,3,3,0,0,0-1.57-1.19c-.39-.16-.8-.28-1-.64,0,0,0,0,0,0a.42.42,0,0,1-.32-.36.78.78,0,0,0-.14-.27,1,1,0,0,1-.28-.54.89.89,0,0,0,0-.22l-.41,0c.22.55.43,1.09.68,1.63a2.07,2.07,0,0,0,1.25.92,3.18,3.18,0,0,1,1,.5l.12.12c.32.37.19.66-.34.75a10.54,10.54,0,0,1-1.95.09,6.82,6.82,0,0,0-1.2,0,1,1,0,0,0-.74,1.61,2.4,2.4,0,0,0,1,.86,3.31,3.31,0,0,0,1.36.36c.45,0,.9.07,1.34.12.23,0,.46.07.69.11l1,.16a1.06,1.06,0,0,1,.91.88.34.34,0,0,1-.2.44,3.09,3.09,0,0,1-.75.12,14.68,14.68,0,0,1-1.48-.08c-.58-.07-1.15-.17-1.73-.25a3.47,3.47,0,0,0-.64-.06c-.37,0-.74.05-1.11.09a2.75,2.75,0,0,0-1.49.59,1,1,0,0,0,.1,1.62,3.16,3.16,0,0,0,1.26.49c.22,0,.44,0,.67.06s.63.09.94.11c.59,0,1.17,0,1.76.05a6.7,6.7,0,0,1,.9.11.4.4,0,0,1,.34.35.31.31,0,0,1-.19.37,2.62,2.62,0,0,1-1.08.24c-.57,0-1.14,0-1.71.06a.82.82,0,0,0-.79.64,1.11,1.11,0,0,0,.36,1,5.93,5.93,0,0,0,.56.43c.09.07.13.14.06.22a3.83,3.83,0,0,0-.28.29.66.66,0,0,0-.16.31c-.06.49.24.8.84.93a1.61,1.61,0,0,1,.33.16c-.37.09-.37.11-.2.32l.85-.29.08.28h.07c0-.1.17-.2-.09-.29a.86.86,0,0,0,0-1.34,3.43,3.43,0,0,1,.06.7.78.78,0,0,1-.54.55.78.78,0,0,0-.11-.18.35.35,0,0,0-.13-.11s-.12,0-.13-.07a3.48,3.48,0,0,1-.1-.44h0l.08.39a1.44,1.44,0,0,1,.06-.73.69.69,0,0,1,.14.51,1.43,1.43,0,0,0,.09.34l.27-.08.06,0a.31.31,0,0,0,.21-.36,1,1,0,0,0-.08-.29.79.79,0,0,0-.12-.15s-.11-.13-.09-.16,0-.12-.12-.15-.09-.09-.13-.13,0-.08-.06-.1l-.9-.68s-.13,0-.2-.07l-.16-.08,0,0,.1,0-.21-.6h0l-.09.39c-.21-.3-.08-.5.4-.66l.1.11.1-.18c.27,0,.54.08.8.09s.51,0,.76-.06c0,0,0,0,0-.06h-.27v0a5.7,5.7,0,0,0,.83,0,6.21,6.21,0,0,0,.78-.23l-.18.17a.51.51,0,0,0,.48-.18c.28-.28.31-.55.11-.79l0,.43a1.29,1.29,0,0,1-.08-.57c.06-.24-.14-.35-.32-.46a2.28,2.28,0,0,0-1.1-.25h-1.09l-1.49-.1a5.42,5.42,0,0,1-1.39-.19,1.48,1.48,0,0,1-.86-.65l0,0-.06,0,.37-.64-.33.15a.24.24,0,0,1,.08-.13,2.74,2.74,0,0,1,1.2-.5c.12,0,.24-.06.28.06.11,0,.22-.1.3-.08a1.69,1.69,0,0,0,.55.05h.11s0-.05,0-.06a.5.5,0,0,0-.13,0H151a2.15,2.15,0,0,1,.92,0l-.15.14c.27.06.52.13.77.17s.68.09,1,.11c.62.05,1.24.07,1.85.1a1.17,1.17,0,0,0,.74-.23.51.51,0,0,1,.17-.07C156.63,367.07,156.87,366.75,156.76,366.48Z"/><rect class="cls-1" x="1408" y="555" width="512" height="512"/><text class="cls-2" transform="translate(1592 834.92)">C</text><text/><text class="cls-3" transform="translate(1542.18 911.3)">Camille Ulrikke</text><path class="cls-4" d="M1691.91,919.71a6.31,6.31,0,0,0-.29-.66,2.16,2.16,0,0,0-.34-.47,2,2,0,0,0-1.06-.52,20.8,20.8,0,0,0-2.34-.3,3.59,3.59,0,0,1-2.2-.73c-.13-.1-.19-.25-.31-.36a.36.36,0,0,1-.1-.35.62.62,0,0,0,0-.33.19.19,0,0,1,.11-.28,4.84,4.84,0,0,1,.54-.17s.07,0,.07,0c0,.15.14.11.2.11.5,0,1,.08,1.5.07a7,7,0,0,0,1.29-.14,2.74,2.74,0,0,0,.68-.35.68.68,0,0,0,.19-.88,3,3,0,0,0-1.57-1.28c-.38-.17-.79-.29-1-.68,0,0,0,0-.06,0-.22-.06-.27-.21-.32-.38a.88.88,0,0,0-.13-.3,1.1,1.1,0,0,1-.28-.57,1.6,1.6,0,0,0,0-.23l-.42,0c.22.58.44,1.16.69,1.74a2.05,2.05,0,0,0,1.25,1,3.39,3.39,0,0,1,1,.54l.12.13c.31.39.18.71-.35.8a9.74,9.74,0,0,1-2,.1,5.88,5.88,0,0,0-1.19,0,1.06,1.06,0,0,0-.74,1.73,2.56,2.56,0,0,0,1,.92,3.08,3.08,0,0,0,1.37.37c.44,0,.89.08,1.34.14.23,0,.45.08.68.12l1,.17a1.12,1.12,0,0,1,.91.93.38.38,0,0,1-.2.48,3.28,3.28,0,0,1-.75.13c-.49,0-1,0-1.48-.09s-1.15-.18-1.73-.26a2.88,2.88,0,0,0-.65-.07,10.4,10.4,0,0,0-1.11.1,2.61,2.61,0,0,0-1.49.63,1.12,1.12,0,0,0,.11,1.73,3,3,0,0,0,1.26.53c.21,0,.44,0,.66.06s.63.1,1,.12c.58,0,1.17,0,1.75.06a5.52,5.52,0,0,1,.91.11.42.42,0,0,1,.33.38.34.34,0,0,1-.19.4,2.55,2.55,0,0,1-1.07.25c-.58,0-1.15,0-1.72.06a.84.84,0,0,0-.78.69,1.21,1.21,0,0,0,.36,1.06,5,5,0,0,0,.55.46c.09.07.14.14.06.23a3.74,3.74,0,0,0-.27.31.78.78,0,0,0-.16.33c-.06.53.23.87.84,1a2,2,0,0,1,.32.17c-.36.11-.37.12-.19.35l.84-.32.09.3h.06c0-.11.18-.22-.08-.32a1,1,0,0,0,0-1.43,4.81,4.81,0,0,1,0,.75.77.77,0,0,1-.54.58c0-.07-.06-.13-.1-.19l-.14-.12s-.12,0-.13-.07-.07-.31-.1-.47h0l.09.42a1.51,1.51,0,0,1,.06-.78.82.82,0,0,1,.14.54,1.3,1.3,0,0,0,.08.37l.28-.09,0,0a.34.34,0,0,0,.22-.38,1.25,1.25,0,0,0-.08-.32s-.09-.1-.13-.15-.11-.15-.09-.17,0-.14-.11-.17-.1-.09-.14-.14,0-.08-.05-.1l-.91-.73a1.08,1.08,0,0,0-.19-.08l-.16-.08,0,0,.11,0-.21-.64h0l-.09.42c-.21-.32-.09-.54.39-.71l.1.12.11-.19a5.44,5.44,0,0,0,.8.09,5,5,0,0,0,.76-.06s0,0,0-.06l-.27,0v-.05a5.63,5.63,0,0,0,.83,0,5.88,5.88,0,0,0,.78-.25l-.17.18a.47.47,0,0,0,.47-.18.6.6,0,0,0,.11-.86l0,.46a1.28,1.28,0,0,1-.09-.6c.06-.26-.14-.38-.32-.49a2.07,2.07,0,0,0-1.1-.28c-.36,0-.72,0-1.08,0s-1-.07-1.49-.1a4.75,4.75,0,0,1-1.4-.21,1.43,1.43,0,0,1-.85-.68l0,0-.06,0,.36-.69-.32.16a.22.22,0,0,1,.08-.13,2.63,2.63,0,0,1,1.2-.54c.12,0,.24-.06.28.06.11,0,.22-.11.29-.08a1.49,1.49,0,0,0,.55,0,.48.48,0,0,0,.12,0v-.06l-.13,0h-.22a2,2,0,0,1,.92,0l-.14.15c.26.06.51.13.76.17a9.06,9.06,0,0,0,1,.13c.61,0,1.23.08,1.85.1a1.16,1.16,0,0,0,.73-.24.37.37,0,0,1,.18-.08A.59.59,0,0,0,1691.91,919.71Z"/><path class="cls-4" d="M1561.76,919.48a3.87,3.87,0,0,0-.29-.62,2,2,0,0,0-.34-.44,2,2,0,0,0-1.05-.48,18.82,18.82,0,0,0-2.35-.28,3.91,3.91,0,0,1-2.2-.69c-.12-.09-.19-.23-.3-.33a.3.3,0,0,1-.1-.33.47.47,0,0,0,0-.31.18.18,0,0,1,.11-.26,4.81,4.81,0,0,1,.54-.16h.08c0,.14.14.1.19.11.5,0,1,.07,1.51.06a7.71,7.71,0,0,0,1.28-.13,3.12,3.12,0,0,0,.69-.33.62.62,0,0,0,.19-.82,3,3,0,0,0-1.57-1.19c-.39-.16-.8-.28-1-.64,0,0,0,0-.05,0a.42.42,0,0,1-.32-.36.78.78,0,0,0-.14-.27,1,1,0,0,1-.28-.54.89.89,0,0,0,0-.22l-.41,0c.22.55.43,1.09.68,1.63a2.07,2.07,0,0,0,1.25.92,3.18,3.18,0,0,1,1,.5l.12.12c.32.37.19.66-.34.75a10.54,10.54,0,0,1-2,.09,6.82,6.82,0,0,0-1.2,0,1,1,0,0,0-.74,1.61,2.4,2.4,0,0,0,1,.86,3.31,3.31,0,0,0,1.36.36c.45,0,.9.07,1.34.12.23,0,.46.07.69.11l1,.16a1.06,1.06,0,0,1,.91.88.34.34,0,0,1-.2.44,3.09,3.09,0,0,1-.75.12,14.68,14.68,0,0,1-1.48-.08c-.58-.07-1.15-.17-1.73-.25a3.47,3.47,0,0,0-.64-.06c-.37,0-.74,0-1.11.09a2.75,2.75,0,0,0-1.49.59,1,1,0,0,0,.1,1.62,3.16,3.16,0,0,0,1.26.49c.22,0,.44,0,.67.06s.63.09.94.11c.59,0,1.17,0,1.76.05a6.7,6.7,0,0,1,.9.11.4.4,0,0,1,.34.35.31.31,0,0,1-.19.37,2.62,2.62,0,0,1-1.08.24c-.57,0-1.14,0-1.71.06a.82.82,0,0,0-.79.64,1.11,1.11,0,0,0,.36,1,5.93,5.93,0,0,0,.56.43c.09.07.13.14.06.22a3.83,3.83,0,0,0-.28.29.66.66,0,0,0-.16.31c-.06.49.24.8.84.93a1.61,1.61,0,0,1,.33.16c-.37.09-.37.11-.2.32l.85-.29.08.28h.07c0-.1.17-.2-.09-.29a.86.86,0,0,0,0-1.34,3.43,3.43,0,0,1,.06.7.78.78,0,0,1-.54.55.78.78,0,0,0-.11-.18.35.35,0,0,0-.13-.11s-.12,0-.13-.07a3.48,3.48,0,0,1-.1-.44h.05l.08.39a1.44,1.44,0,0,1,.06-.73.69.69,0,0,1,.14.51,1.43,1.43,0,0,0,.09.34l.27-.08.06,0a.31.31,0,0,0,.21-.36,1,1,0,0,0-.08-.29.79.79,0,0,0-.12-.15s-.11-.13-.09-.16,0-.12-.12-.15-.09-.09-.13-.13,0-.08-.06-.1l-.9-.68s-.13,0-.2-.07l-.16-.08,0,0,.1,0-.21-.6h0l-.09.39c-.21-.3-.08-.5.4-.66l.1.11.1-.18c.27,0,.54.08.8.09s.51,0,.76-.06c0,0,0,0,0-.06h-.27v0a5.7,5.7,0,0,0,.83,0,6.21,6.21,0,0,0,.78-.23l-.18.17a.51.51,0,0,0,.48-.18c.28-.28.31-.55.11-.79l0,.43a1.29,1.29,0,0,1-.08-.57c.06-.24-.14-.35-.32-.46a2.28,2.28,0,0,0-1.1-.25h-1.09l-1.49-.1a5.42,5.42,0,0,1-1.39-.19,1.48,1.48,0,0,1-.86-.65l0,0-.06,0,.37-.64-.33.15a.24.24,0,0,1,.08-.13,2.74,2.74,0,0,1,1.2-.5c.12,0,.24-.06.28.06.11,0,.22-.1.3-.08a1.69,1.69,0,0,0,.55,0h.11s0,0,0-.06a.5.5,0,0,0-.13,0H1556a2.15,2.15,0,0,1,.92,0l-.15.14c.27.06.52.13.77.17s.68.09,1,.11c.62,0,1.24.07,1.85.1a1.17,1.17,0,0,0,.74-.23.51.51,0,0,1,.17-.07C1561.63,920.07,1561.87,919.75,1561.76,919.48Z"/><rect class="cls-1" x="924" y="359" width="512" height="512"/><text class="cls-2" transform="translate(1108 638.92)">C</text><text/><text class="cls-3" transform="translate(1058.18 715.3)">Camille Ulrikke</text><path class="cls-4" d="M1207.91,723.71a6.31,6.31,0,0,0-.29-.66,2.16,2.16,0,0,0-.34-.47,2,2,0,0,0-1.06-.52,20.8,20.8,0,0,0-2.34-.3,3.59,3.59,0,0,1-2.2-.73c-.13-.1-.19-.25-.31-.36a.36.36,0,0,1-.1-.35.62.62,0,0,0,0-.33.19.19,0,0,1,.11-.28,4.84,4.84,0,0,1,.54-.17s.07,0,.07,0c0,.15.14.11.2.11.5,0,1,.08,1.5.07a7,7,0,0,0,1.29-.14,2.74,2.74,0,0,0,.68-.35.68.68,0,0,0,.19-.88,3,3,0,0,0-1.57-1.28c-.38-.17-.79-.29-1-.68,0,0,0,0-.06,0-.22-.06-.27-.21-.32-.38a.88.88,0,0,0-.13-.3,1.1,1.1,0,0,1-.28-.57,1.6,1.6,0,0,0,0-.23l-.42,0c.22.58.44,1.16.69,1.74a2.05,2.05,0,0,0,1.25,1,3.39,3.39,0,0,1,1,.54l.12.13c.31.39.18.71-.35.8a9.74,9.74,0,0,1-2,.1,5.88,5.88,0,0,0-1.19,0,1.06,1.06,0,0,0-.74,1.73,2.56,2.56,0,0,0,1,.92,3.08,3.08,0,0,0,1.37.37c.44,0,.89.08,1.34.14.23,0,.45.08.68.12l1,.17a1.12,1.12,0,0,1,.91.93.38.38,0,0,1-.2.48,3.28,3.28,0,0,1-.75.13c-.49,0-1,0-1.48-.09s-1.15-.18-1.73-.26a2.88,2.88,0,0,0-.65-.07,10.4,10.4,0,0,0-1.11.1,2.61,2.61,0,0,0-1.49.63,1.12,1.12,0,0,0,.11,1.73,3,3,0,0,0,1.26.53c.21,0,.44,0,.66.06s.63.1,1,.12c.58,0,1.17,0,1.75.06a5.52,5.52,0,0,1,.91.11.42.42,0,0,1,.33.38.34.34,0,0,1-.19.4,2.55,2.55,0,0,1-1.07.25c-.58,0-1.15,0-1.72.06a.84.84,0,0,0-.78.69,1.21,1.21,0,0,0,.36,1.06,5,5,0,0,0,.55.46c.09.07.14.14.06.23a3.74,3.74,0,0,0-.27.31.78.78,0,0,0-.16.33c-.06.53.23.87.84,1a2,2,0,0,1,.32.17c-.36.11-.37.12-.19.35l.84-.32.09.3h.06c0-.11.18-.22-.08-.32a1,1,0,0,0,0-1.43,4.81,4.81,0,0,1,0,.75.77.77,0,0,1-.54.58c0-.07-.06-.13-.1-.19l-.14-.12s-.12,0-.13-.07-.07-.31-.1-.47h0l.09.42a1.51,1.51,0,0,1,.06-.78.82.82,0,0,1,.14.54,1.3,1.3,0,0,0,.08.37l.28-.09,0,0a.34.34,0,0,0,.22-.38,1.25,1.25,0,0,0-.08-.32s-.09-.1-.13-.15-.11-.15-.09-.17,0-.14-.11-.17-.1-.09-.14-.14,0-.08-.05-.1l-.91-.73a1.08,1.08,0,0,0-.19-.08l-.16-.08,0,0,.11,0-.21-.64h0l-.09.42c-.21-.32-.09-.54.39-.71l.1.12.11-.19a5.44,5.44,0,0,0,.8.09,5,5,0,0,0,.76-.06s0,0,0-.06l-.27,0v-.05a5.63,5.63,0,0,0,.83,0,5.88,5.88,0,0,0,.78-.25l-.17.18a.47.47,0,0,0,.47-.18.6.6,0,0,0,.11-.86l0,.46a1.28,1.28,0,0,1-.09-.6c.06-.26-.14-.38-.32-.49a2.07,2.07,0,0,0-1.1-.28c-.36,0-.72,0-1.08,0s-1-.07-1.49-.1a4.75,4.75,0,0,1-1.4-.21,1.43,1.43,0,0,1-.85-.68l0,0-.06,0,.36-.69-.32.16a.22.22,0,0,1,.08-.13,2.63,2.63,0,0,1,1.2-.54c.12,0,.24-.06.28.06.11,0,.22-.11.29-.08a1.49,1.49,0,0,0,.55,0,.48.48,0,0,0,.12,0v-.06l-.13,0h-.22a2,2,0,0,1,.92,0l-.14.15c.26.06.51.13.76.17a9.06,9.06,0,0,0,1,.13c.61,0,1.23.08,1.85.1a1.16,1.16,0,0,0,.73-.24.37.37,0,0,1,.18-.08A.59.59,0,0,0,1207.91,723.71Z"/><path class="cls-4" d="M1077.76,723.48a3.87,3.87,0,0,0-.29-.62,2,2,0,0,0-.34-.44,2,2,0,0,0-1.05-.48,18.82,18.82,0,0,0-2.35-.28,3.91,3.91,0,0,1-2.2-.69c-.12-.09-.19-.23-.3-.33a.3.3,0,0,1-.1-.33.47.47,0,0,0,0-.31.18.18,0,0,1,.11-.26,4.81,4.81,0,0,1,.54-.16h.08c0,.14.14.1.19.11.5,0,1,.07,1.51.06a7.71,7.71,0,0,0,1.28-.13,3.12,3.12,0,0,0,.69-.33.62.62,0,0,0,.19-.82,3,3,0,0,0-1.57-1.19c-.39-.16-.8-.28-1-.64,0,0,0,0-.05,0a.42.42,0,0,1-.32-.36.78.78,0,0,0-.14-.27,1,1,0,0,1-.28-.54.89.89,0,0,0,0-.22l-.41,0c.22.55.43,1.09.68,1.63a2.07,2.07,0,0,0,1.25.92,3.18,3.18,0,0,1,1,.5l.12.12c.32.37.19.66-.34.75a10.54,10.54,0,0,1-2,.09,6.82,6.82,0,0,0-1.2,0,1,1,0,0,0-.74,1.61,2.4,2.4,0,0,0,1,.86,3.31,3.31,0,0,0,1.36.36c.45,0,.9.07,1.34.12.23,0,.46.07.69.11l1,.16a1.06,1.06,0,0,1,.91.88.34.34,0,0,1-.2.44,3.09,3.09,0,0,1-.75.12,14.68,14.68,0,0,1-1.48-.08c-.58-.07-1.15-.17-1.73-.25a3.47,3.47,0,0,0-.64-.06c-.37,0-.74,0-1.11.09a2.75,2.75,0,0,0-1.49.59,1,1,0,0,0,.1,1.62,3.16,3.16,0,0,0,1.26.49c.22,0,.44,0,.67.06s.63.09.94.11c.59,0,1.17,0,1.76.05a6.7,6.7,0,0,1,.9.11.4.4,0,0,1,.34.35.31.31,0,0,1-.19.37,2.62,2.62,0,0,1-1.08.24c-.57,0-1.14,0-1.71.06a.82.82,0,0,0-.79.64,1.11,1.11,0,0,0,.36,1,5.93,5.93,0,0,0,.56.43c.09.07.13.14.06.22a3.83,3.83,0,0,0-.28.29.66.66,0,0,0-.16.31c-.06.49.24.8.84.93a1.61,1.61,0,0,1,.33.16c-.37.09-.37.11-.2.32l.85-.29.08.28h.07c0-.1.17-.2-.09-.29a.86.86,0,0,0,0-1.34,3.43,3.43,0,0,1,.06.7.78.78,0,0,1-.54.55.78.78,0,0,0-.11-.18.35.35,0,0,0-.13-.11s-.12,0-.13-.07a3.48,3.48,0,0,1-.1-.44h.05l.08.39a1.44,1.44,0,0,1,.06-.73.69.69,0,0,1,.14.51,1.43,1.43,0,0,0,.09.34l.27-.08.06,0a.31.31,0,0,0,.21-.36,1,1,0,0,0-.08-.29.79.79,0,0,0-.12-.15s-.11-.13-.09-.16,0-.12-.12-.15-.09-.09-.13-.13,0-.08-.06-.1l-.9-.68s-.13,0-.2-.07l-.16-.08,0,0,.1,0-.21-.6h0l-.09.39c-.21-.3-.08-.5.4-.66l.1.11.1-.18c.27,0,.54.08.8.09s.51,0,.76-.06c0,0,0,0,0-.06h-.27v0a5.7,5.7,0,0,0,.83,0,6.21,6.21,0,0,0,.78-.23l-.18.17a.51.51,0,0,0,.48-.18c.28-.28.31-.55.11-.79l0,.43a1.29,1.29,0,0,1-.08-.57c.06-.24-.14-.35-.32-.46a2.28,2.28,0,0,0-1.1-.25h-1.09l-1.49-.1a5.42,5.42,0,0,1-1.39-.19,1.48,1.48,0,0,1-.86-.65l0,0-.06,0,.37-.64-.33.15a.24.24,0,0,1,.08-.13,2.74,2.74,0,0,1,1.2-.5c.12,0,.24-.06.28.06.11,0,.22-.1.3-.08a1.69,1.69,0,0,0,.55,0h.11s0,0,0-.06a.5.5,0,0,0-.13,0H1072a2.15,2.15,0,0,1,.92,0l-.15.14c.27.06.52.13.77.17s.68.09,1,.11c.62,0,1.24.07,1.85.1a1.17,1.17,0,0,0,.74-.23.51.51,0,0,1,.17-.07C1077.63,724.07,1077.87,723.75,1077.76,723.48Z"/><rect class="cls-1" x="471" y="161" width="512" height="512"/><text class="cls-2" transform="translate(655 440.92)">C</text><text/><text class="cls-3" transform="translate(605.18 517.3)">Camille Ulrikke</text><path class="cls-4" d="M754.91,525.71a6.31,6.31,0,0,0-.29-.66,2.16,2.16,0,0,0-.34-.47,2,2,0,0,0-1.06-.52,20.8,20.8,0,0,0-2.34-.3,3.59,3.59,0,0,1-2.2-.73c-.13-.1-.19-.25-.31-.36a.36.36,0,0,1-.1-.35.62.62,0,0,0,0-.33.19.19,0,0,1,.11-.28,4.84,4.84,0,0,1,.54-.17s.07,0,.07,0c0,.15.14.11.2.11.5,0,1,.08,1.5.07a7,7,0,0,0,1.29-.14,2.74,2.74,0,0,0,.68-.35.68.68,0,0,0,.19-.88,3,3,0,0,0-1.57-1.28c-.38-.17-.79-.29-1-.68,0,0,0,0-.06,0-.22-.06-.27-.21-.32-.38a.88.88,0,0,0-.13-.3,1.1,1.1,0,0,1-.28-.57,1.6,1.6,0,0,0,0-.23l-.42,0c.22.58.44,1.16.69,1.74a2.05,2.05,0,0,0,1.25,1,3.39,3.39,0,0,1,1,.54l.12.13c.31.39.18.71-.35.8a9.74,9.74,0,0,1-1.95.1,5.88,5.88,0,0,0-1.19,0,1.06,1.06,0,0,0-.74,1.73,2.56,2.56,0,0,0,1,.92,3.08,3.08,0,0,0,1.37.37c.44,0,.89.08,1.34.14.23,0,.45.08.68.12l1,.17a1.12,1.12,0,0,1,.91.93.38.38,0,0,1-.2.48,3.28,3.28,0,0,1-.75.13c-.49,0-1,0-1.48-.09s-1.15-.18-1.73-.26a2.88,2.88,0,0,0-.65-.07,10.4,10.4,0,0,0-1.11.1,2.61,2.61,0,0,0-1.49.63,1.12,1.12,0,0,0,.11,1.73,3,3,0,0,0,1.26.53c.21,0,.44,0,.66.06s.63.1.95.12c.58,0,1.17,0,1.75.06a5.52,5.52,0,0,1,.91.11.42.42,0,0,1,.33.38.34.34,0,0,1-.19.4,2.55,2.55,0,0,1-1.07.25c-.58,0-1.15,0-1.72.06a.84.84,0,0,0-.78.69,1.21,1.21,0,0,0,.36,1.06,5,5,0,0,0,.55.46c.09.07.14.14.06.23a3.74,3.74,0,0,0-.27.31.78.78,0,0,0-.16.33c-.06.53.23.87.84,1a2,2,0,0,1,.32.17c-.36.11-.37.12-.19.35l.84-.32.09.3h.06c0-.11.18-.22-.08-.32a1,1,0,0,0,0-1.43,4.81,4.81,0,0,1,0,.75.77.77,0,0,1-.54.58c0-.07-.06-.13-.1-.19l-.14-.12s-.12,0-.13-.07-.07-.31-.1-.47h0l.09.42a1.51,1.51,0,0,1,.06-.78.82.82,0,0,1,.14.54,1.3,1.3,0,0,0,.08.37l.28-.09,0,0a.34.34,0,0,0,.22-.38,1.25,1.25,0,0,0-.08-.32s-.09-.1-.13-.15-.11-.15-.09-.17,0-.14-.11-.17-.1-.09-.14-.14,0-.08,0-.1l-.91-.73a1.08,1.08,0,0,0-.19-.08l-.16-.08,0,0,.11,0-.21-.64h0l-.09.42c-.21-.32-.09-.54.39-.71l.1.12.11-.19a5.44,5.44,0,0,0,.8.09,5,5,0,0,0,.76-.06s0,0,0-.06l-.27,0v-.05a5.63,5.63,0,0,0,.83,0,5.88,5.88,0,0,0,.78-.25l-.17.18a.47.47,0,0,0,.47-.18.6.6,0,0,0,.11-.86l0,.46a1.28,1.28,0,0,1-.09-.6c.06-.26-.14-.38-.32-.49a2.07,2.07,0,0,0-1.1-.28c-.36,0-.72,0-1.08,0s-1-.07-1.49-.1a4.75,4.75,0,0,1-1.4-.21,1.43,1.43,0,0,1-.85-.68l0,0-.06,0,.36-.69-.32.16a.22.22,0,0,1,.08-.13,2.63,2.63,0,0,1,1.2-.54c.12,0,.24-.06.28.06.11,0,.22-.11.29-.08a1.49,1.49,0,0,0,.55,0,.48.48,0,0,0,.12,0v-.06l-.13,0h-.22a2,2,0,0,1,.92,0l-.14.15c.26.06.51.13.76.17a9.06,9.06,0,0,0,1,.13c.61,0,1.23.08,1.85.1a1.16,1.16,0,0,0,.73-.24.37.37,0,0,1,.18-.08A.59.59,0,0,0,754.91,525.71Z"/><path class="cls-4" d="M624.76,525.48a3.87,3.87,0,0,0-.29-.62,2,2,0,0,0-.34-.44,2,2,0,0,0-1-.48,18.82,18.82,0,0,0-2.35-.28,3.91,3.91,0,0,1-2.2-.69c-.12-.09-.19-.23-.3-.33a.3.3,0,0,1-.1-.33.47.47,0,0,0,0-.31.18.18,0,0,1,.11-.26,4.81,4.81,0,0,1,.54-.16h.08c0,.14.14.1.19.11.5,0,1,.07,1.51.06a7.71,7.71,0,0,0,1.28-.13,3.12,3.12,0,0,0,.69-.33.62.62,0,0,0,.19-.82,3,3,0,0,0-1.57-1.19c-.39-.16-.8-.28-1-.64,0,0,0,0,0,0a.42.42,0,0,1-.32-.36.78.78,0,0,0-.14-.27,1,1,0,0,1-.28-.54.89.89,0,0,0,0-.22l-.41,0c.22.55.43,1.09.68,1.63a2.07,2.07,0,0,0,1.25.92,3.18,3.18,0,0,1,1,.5l.12.12c.32.37.19.66-.34.75a10.54,10.54,0,0,1-1.95.09,6.82,6.82,0,0,0-1.2,0,1,1,0,0,0-.74,1.61,2.4,2.4,0,0,0,1,.86,3.31,3.31,0,0,0,1.36.36c.45,0,.9.07,1.34.12.23,0,.46.07.69.11l1,.16a1.06,1.06,0,0,1,.91.88.34.34,0,0,1-.2.44,3.09,3.09,0,0,1-.75.12,14.68,14.68,0,0,1-1.48-.08c-.58-.07-1.15-.17-1.73-.25a3.47,3.47,0,0,0-.64-.06c-.37,0-.74,0-1.11.09a2.75,2.75,0,0,0-1.49.59,1,1,0,0,0,.1,1.62,3.16,3.16,0,0,0,1.26.49c.22,0,.44,0,.67.06s.63.09.94.11c.59,0,1.17,0,1.76.05a6.7,6.7,0,0,1,.9.11.4.4,0,0,1,.34.35.31.31,0,0,1-.19.37,2.62,2.62,0,0,1-1.08.24c-.57,0-1.14,0-1.71.06a.82.82,0,0,0-.79.64,1.11,1.11,0,0,0,.36,1,5.93,5.93,0,0,0,.56.43c.09.07.13.14.06.22a3.83,3.83,0,0,0-.28.29.66.66,0,0,0-.16.31c-.06.49.24.8.84.93a1.61,1.61,0,0,1,.33.16c-.37.09-.37.11-.2.32l.85-.29.08.28h.07c0-.1.17-.2-.09-.29a.86.86,0,0,0,0-1.34,3.43,3.43,0,0,1,.06.7.78.78,0,0,1-.54.55.78.78,0,0,0-.11-.18.35.35,0,0,0-.13-.11s-.12,0-.13-.07a3.48,3.48,0,0,1-.1-.44h0l.08.39a1.44,1.44,0,0,1,.06-.73.69.69,0,0,1,.14.51,1.43,1.43,0,0,0,.09.34l.27-.08.06,0a.31.31,0,0,0,.21-.36,1,1,0,0,0-.08-.29.79.79,0,0,0-.12-.15s-.11-.13-.09-.16,0-.12-.12-.15-.09-.09-.13-.13,0-.08-.06-.1l-.9-.68c-.05,0-.13,0-.2-.07l-.16-.08,0,0,.1,0-.21-.6h0l-.09.39c-.21-.3-.08-.5.4-.66l.1.11.1-.18c.27,0,.54.08.8.09s.51,0,.76-.06c0,0,0,0,0-.06h-.27v0a5.7,5.7,0,0,0,.83,0,6.21,6.21,0,0,0,.78-.23l-.18.17a.51.51,0,0,0,.48-.18c.28-.28.31-.55.11-.79l0,.43a1.29,1.29,0,0,1-.08-.57c.06-.24-.14-.35-.32-.46a2.28,2.28,0,0,0-1.1-.25h-1.09l-1.49-.1a5.42,5.42,0,0,1-1.39-.19,1.48,1.48,0,0,1-.86-.65l0,0-.06,0,.37-.64-.33.15a.24.24,0,0,1,.08-.13,2.74,2.74,0,0,1,1.2-.5c.12,0,.24-.06.28.06.11,0,.22-.1.3-.08a1.69,1.69,0,0,0,.55,0h.11s0,0,0-.06a.5.5,0,0,0-.13,0H619a2.15,2.15,0,0,1,.92,0l-.15.14c.27.06.52.13.77.17s.68.09,1,.11c.62,0,1.24.07,1.85.1a1.17,1.17,0,0,0,.74-.23.51.51,0,0,1,.17-.07C624.63,526.07,624.87,525.75,624.76,525.48Z"/></svg>
