<svg id="Layer_1" data-name="Layer 1" xmlns="http://www.w3.org/2000/svg" viewBox="0 0 500 500"><defs><style>.cls-1{fill:#d5b331;}</style></defs><title>Artboard 1</title><path class="cls-1" d="M230.73,134.35c-.91,10.92.12,23.54,8.18,32,13.2,13.79,39.2,10,39.45,14.46.14,2.55-8.08,5.56-11.09,5.76-14.18,1-28.42,1.35-42.55,2.77-13.35,1.35-27.74,2.84-32.33,18.57-4.74,16.29,1.85,29.7,14.34,40.22a60.75,60.75,0,0,0,33.78,14.2c18.5,1.94,36.81,5.67,55.22,8.5,11,1.7,19.24,7.06,17.46,19-1.61,10.83-11.91,9-19.5,8.73C280.44,298,267.17,296.74,254,295c-23.09-3.12-46.2-5.47-68,4.94-13.58,6.49-22.78,16.88-21.46,33.59,1.26,15.83,12.12,23.48,25.16,27.79,15.2,5,31.26,5.77,47.32,6.76,15.19.93,43-5.94,42.72,7.48-.36,20.12-26.71,11.39-42.13,13.58-22.72,3.23-33.53,20.11-21.49,39.38,6.91,11.07,11.13,18.51,6,32.56-5.86,16,11.69,24,21.29,33.06,2.53,2.4,16.93,5.21,20.5-4.22,4.64-12.24,8.59-25.78-2.66-37.5-3.68-3.84-7.79-7.38-10.94-11.62-7-9.41-24.46-14.05-19.28-28.75,4.4-12.47,19.17-4.32,28.91-7.19,5.92-1.73,11.78-4.22,17.82-4.89,13.45-1.47,26.13-4.81,24.89-21.19-1.26-16.66-10.22-27.54-29.12-28.05-22.2-.61-44.37-2.31-66.52-4-11.77-.92-25.5-3.24-25.21-17.82s12-20.82,26.4-19.81c28.25,2,56.47,4.33,84.72,6.18,17.82,1.17,38.07-1.28,39.61-21.6,1.5-19.89-10.71-37.89-33.26-42.34-16.48-3.24-33.39-4.52-50.16-6-14.87-1.28-27.5-6.36-37.26-17.94-4.43-5.26-6-11.28-2.69-17.21S217.8,203,225,205c11.92,3.24,35,2.79,47.34-1.46S298.7,187.06,297,177.92c-2.81-15.15-47.05-13.73-49.24-28.77C247,144,251.43,139,256.24,135c-5.76.16-11.82.13-18.15-.16C235.59,134.69,233.13,134.54,230.73,134.35Z"/><polygon class="cls-1" points="244.94 3.03 167.84 136.56 322.03 136.56 244.94 3.03"/></svg>
