<svg id="Layer_1" data-name="Layer 1" xmlns="http://www.w3.org/2000/svg" viewBox="0 0 500 200"><defs><style>.cls-1{font-size:71.54px;font-family:BodoniSvtyTwoSCITCTT-Book, "Bodoni 72 Smallcaps";letter-spacing:0em;}.cls-1,.cls-2{fill:#d4af35;}</style></defs><title>Artboard 1</title><text class="cls-1" transform="translate(19.29 115.96)">Camille Ulrikke</text><circle class="cls-2" cx="280.71" cy="54.48" r="3.68"/><path class="cls-2" d="M287.54,126.91a6.87,6.87,0,0,0-.38-.88,2.66,2.66,0,0,0-.43-.64,2.46,2.46,0,0,0-1.37-.69,22.46,22.46,0,0,0-3-.4,4.63,4.63,0,0,1-2.85-1c-.16-.14-.24-.34-.39-.48a.47.47,0,0,1-.13-.47.94.94,0,0,0,0-.44.26.26,0,0,1,.14-.38,5.21,5.21,0,0,1,.7-.23s.09,0,.09,0c0,.2.18.14.26.15.65,0,1.3.09,1.94.08a8.27,8.27,0,0,0,1.66-.18,3.81,3.81,0,0,0,.89-.47.94.94,0,0,0,.24-1.19,3.88,3.88,0,0,0-2-1.71c-.5-.23-1-.4-1.27-.92a.12.12,0,0,0-.07-.07c-.28-.08-.35-.28-.41-.51a.93.93,0,0,0-.18-.39,1.55,1.55,0,0,1-.36-.78,1.65,1.65,0,0,0,0-.31l-.53,0c.28.79.56,1.57.88,2.34a2.74,2.74,0,0,0,1.62,1.33,3.84,3.84,0,0,1,1.3.72,1.29,1.29,0,0,1,.16.17c.41.53.24,1-.44,1.07a11.87,11.87,0,0,1-2.53.14,7.15,7.15,0,0,0-1.54.06,1.44,1.44,0,0,0-1,2.32,3.32,3.32,0,0,0,1.34,1.23,4,4,0,0,0,1.76.51c.58,0,1.16.1,1.74.17.29,0,.59.11.88.17s.85.14,1.28.23a1.47,1.47,0,0,1,1.18,1.25.52.52,0,0,1-.27.64,3.18,3.18,0,0,1-1,.17,15.47,15.47,0,0,1-1.92-.12c-.75-.09-1.49-.23-2.23-.35a4.79,4.79,0,0,0-.84-.09,13.57,13.57,0,0,0-1.43.14,3.26,3.26,0,0,0-1.93.85,1.53,1.53,0,0,0,.13,2.32,3.73,3.73,0,0,0,1.63.71c.28.05.58.05.86.09s.82.13,1.23.15c.75,0,1.51,0,2.26.08a7.77,7.77,0,0,1,1.18.15.56.56,0,0,1,.43.51.46.46,0,0,1-.25.53,3.1,3.1,0,0,1-1.39.34c-.74,0-1.48,0-2.22.08a1.11,1.11,0,0,0-1,.93,1.66,1.66,0,0,0,.46,1.42c.22.23.48.42.72.63s.18.19.08.31a3.31,3.31,0,0,0-.35.41.93.93,0,0,0-.21.45c-.08.7.3,1.15,1.08,1.34a2.51,2.51,0,0,1,.43.22c-.48.14-.48.16-.26.47l1.1-.42.1.4h.09c0-.14.23-.29-.11-.43a1.31,1.31,0,0,0,0-1.91,6.82,6.82,0,0,1,.07,1,1,1,0,0,1-.7.79,2.09,2.09,0,0,0-.13-.26,1.37,1.37,0,0,0-.18-.16c-.05,0-.16-.06-.17-.1-.05-.2-.09-.42-.13-.63h.07l.11.56a2.24,2.24,0,0,1,.07-1.05,1,1,0,0,1,.18.73,2.16,2.16,0,0,0,.11.49l.36-.11.07,0a.45.45,0,0,0,.28-.51,1.58,1.58,0,0,0-.1-.43c0-.08-.12-.14-.16-.21s-.14-.19-.12-.23,0-.18-.15-.22-.12-.12-.17-.19,0-.1-.08-.14c-.38-.33-.77-.65-1.17-1-.06-.06-.17-.07-.25-.11l-.2-.11,0-.05.14,0-.28-.87h0l-.11.57c-.27-.43-.12-.73.51-1l.13.16.13-.25c.35,0,.7.11,1,.12a8.09,8.09,0,0,0,1-.08s0-.05,0-.08l-.35,0v-.06a7.68,7.68,0,0,0,1.07-.06,6.56,6.56,0,0,0,1-.34l-.22.25a.61.61,0,0,0,.62-.25.84.84,0,0,0,.14-1.15c0,.18,0,.4,0,.62a1.79,1.79,0,0,1-.1-.81c.07-.35-.19-.51-.42-.66a2.6,2.6,0,0,0-1.42-.37c-.47,0-.94,0-1.41,0-.64,0-1.28-.1-1.92-.14a6,6,0,0,1-1.8-.28,1.9,1.9,0,0,1-1.11-.92l-.05,0-.08,0,.47-.92-.42.21a.42.42,0,0,1,.11-.18,3.5,3.5,0,0,1,1.54-.73c.16,0,.31-.08.37.09.14-.05.28-.15.38-.12a1.73,1.73,0,0,0,.71.08.75.75,0,0,0,.15,0s0-.08,0-.08a.49.49,0,0,0-.16,0l-.29,0a2.49,2.49,0,0,1,1.19-.06l-.18.2c.34.08.66.18,1,.24s.88.14,1.32.17c.8.06,1.6.1,2.4.13a1.42,1.42,0,0,0,.95-.32.57.57,0,0,1,.22-.11A.77.77,0,0,0,287.54,126.91Z"/></svg>
