<svg id="Layer_1" data-name="Layer 1" xmlns="http://www.w3.org/2000/svg" viewBox="0 0 500 500"><defs><style>.cls-1{fill:#f9e3d9;}.cls-2{font-size:68px;font-family:BodoniSvtyTwoSCITCTT-Book, "Bodoni 72 Smallcaps";letter-spacing:0em;}.cls-2,.cls-3{fill:#d4af35;}</style></defs><title>Artboard 1</title><rect class="cls-1" x="-6" y="-6" width="512" height="512"/><text class="cls-2" transform="translate(31.01 254.94)">Camille Ulrikke</text><circle class="cls-3" cx="279.5" cy="196.5" r="3.5"/><path class="cls-3" d="M286,265.35a6.85,6.85,0,0,0-.36-.84,2.66,2.66,0,0,0-.41-.6,2.42,2.42,0,0,0-1.3-.66,23.59,23.59,0,0,0-2.89-.39,4.3,4.3,0,0,1-2.7-.94,5.54,5.54,0,0,1-.37-.45.45.45,0,0,1-.13-.44.79.79,0,0,0,0-.43.25.25,0,0,1,.14-.36,4.62,4.62,0,0,1,.66-.21.2.2,0,0,1,.09,0c0,.2.17.14.24.14.62.05,1.24.1,1.85.09a8.31,8.31,0,0,0,1.58-.18,3.75,3.75,0,0,0,.84-.44.9.9,0,0,0,.23-1.13,3.64,3.64,0,0,0-1.92-1.63c-.48-.22-1-.38-1.21-.88a.12.12,0,0,0-.06-.06c-.27-.07-.34-.27-.39-.49a1,1,0,0,0-.17-.37,1.41,1.41,0,0,1-.34-.73c0-.1,0-.2,0-.3l-.51.05c.27.74.54,1.49.84,2.22a2.6,2.6,0,0,0,1.54,1.26,4.07,4.07,0,0,1,1.24.69,1.07,1.07,0,0,1,.14.16c.39.5.23.9-.41,1a11.4,11.4,0,0,1-2.41.13,6.56,6.56,0,0,0-1.47.06,1.36,1.36,0,0,0-.9,2.2,3.06,3.06,0,0,0,1.27,1.17,3.76,3.76,0,0,0,1.68.48c.55,0,1.1.1,1.65.17.28,0,.56.1.84.15s.8.14,1.21.23a1.4,1.4,0,0,1,1.12,1.19c.06.28,0,.54-.25.6a3.64,3.64,0,0,1-.92.17,15.74,15.74,0,0,1-1.82-.12c-.71-.08-1.42-.22-2.13-.33a4.23,4.23,0,0,0-.79-.08,12.27,12.27,0,0,0-1.36.12,3.2,3.2,0,0,0-1.83.81,1.45,1.45,0,0,0,.12,2.21,3.53,3.53,0,0,0,1.55.67c.27,0,.55,0,.82.08s.77.13,1.16.15c.72,0,1.44,0,2.16.08a6.88,6.88,0,0,1,1.11.14.53.53,0,0,1,.41.49.43.43,0,0,1-.23.5,3.11,3.11,0,0,1-1.33.33c-.7,0-1.4,0-2.1.07a1.06,1.06,0,0,0-1,.88,1.6,1.6,0,0,0,.44,1.35c.21.22.46.4.69.6s.17.18.07.29a4,4,0,0,0-.33.39.94.94,0,0,0-.2.43c-.08.67.29,1.1,1,1.28a1.74,1.74,0,0,1,.4.21c-.45.13-.45.15-.24.44l1-.4.1.38h.08c0-.14.22-.28-.1-.41a1.25,1.25,0,0,0,0-1.82,5.16,5.16,0,0,1,.06.95,1,1,0,0,1-.66.75,2,2,0,0,0-.12-.25.9.9,0,0,0-.18-.15s-.14-.05-.15-.09c-.06-.2-.09-.4-.13-.6h.06l.11.53a2.17,2.17,0,0,1,.07-1,1,1,0,0,1,.17.69,1.89,1.89,0,0,0,.11.47l.34-.1.07,0a.43.43,0,0,0,.26-.49,1.38,1.38,0,0,0-.1-.4c0-.08-.11-.13-.15-.2s-.14-.19-.11-.22c.12-.18,0-.17-.14-.21s-.12-.12-.17-.18,0-.1-.07-.13l-1.11-.93a1.33,1.33,0,0,0-.24-.1,1.18,1.18,0,0,1-.19-.11l0-.05.13,0-.26-.82h-.05l-.11.54c-.26-.41-.11-.69.49-.91l.12.15.12-.24c.34,0,.66.11,1,.12s.62-.05.93-.08c0,0,0-.05,0-.08l-.33,0v-.07a6.77,6.77,0,0,0,1-.05,6,6,0,0,0,1-.32l-.21.23a.58.58,0,0,0,.58-.23.79.79,0,0,0,.14-1.09c0,.17,0,.38,0,.58a1.9,1.9,0,0,1-.1-.77c.07-.33-.17-.48-.39-.62a2.48,2.48,0,0,0-1.35-.35c-.45,0-.89,0-1.34,0-.61,0-1.22-.09-1.83-.12a6.17,6.17,0,0,1-1.71-.27,1.78,1.78,0,0,1-1.05-.88l-.05.05-.08,0c.15-.28.29-.56.45-.88l-.4.21a.32.32,0,0,1,.1-.17,3.13,3.13,0,0,1,1.47-.69c.15,0,.3-.08.35.08.14-.05.27-.14.36-.11a1.76,1.76,0,0,0,.68.07h.14s0-.07,0-.08a.42.42,0,0,0-.16,0h-.27A2.54,2.54,0,0,1,280,266l-.18.19c.33.08.63.17.94.22a10.88,10.88,0,0,0,1.26.17c.76,0,1.51.09,2.27.12a1.34,1.34,0,0,0,.91-.31.68.68,0,0,1,.21-.1A.74.74,0,0,0,286,265.35Z"/></svg>
